<?xml version="1.0" encoding="UTF-8" standalone="no"?>
<!-- Created with Inkscape (http://www.inkscape.org/) -->

<svg
   version="1.1"
   id="svg614"
   width="644"
   height="526.40002"
   viewBox="0 0 644 526.40002"
   xmlns="http://www.w3.org/2000/svg"
   xmlns:svg="http://www.w3.org/2000/svg">
  <defs
     id="defs618" />
  <g
     id="g620">
    <path
       style="fill:#000000;stroke-width:0.8"
       d="m 457.95955,450.01811 c -7.04293,-1.52783 -14.09184,-3.92555 -24.68623,-8.39718 -18.78158,-7.92722 -34.61411,-18.3923 -56.28717,-37.20502 -16.7115,-14.50596 -21.65075,-17.96072 -25.67828,-17.96072 -4.16566,0 -15.42724,4.43304 -17.29562,6.80831 -1.14174,1.45149 -1.60502,3.77483 -1.94391,9.74867 -1.00009,17.62915 -10.47838,31.75547 -26.40258,39.34999 -9.4924,4.52709 -14.74804,5.75952 -26.68303,6.25706 -18.20316,0.75885 -24.28473,-0.98835 -54.30687,-15.60205 l -20.8,-10.12469 -6.4,0.0516 c -4.4806,0.0361 -11.7983,1.21294 -24.4,3.92402 -17.90869,3.8528 -18.07508,3.87232 -32.8,3.84772 -16.14294,-0.027 -23.95842,-0.87508 -36.8,-3.99342 -20.638218,-5.01159 -36.775808,-14.69475 -43.439358,-26.06525 -4.115,-7.02172 -4.75546,-11.2582 -4.36668,-28.88452 0.3958,-17.94473 0.63566,-19.0328 6.99208,-31.71742 7.91983,-15.80453 13.21722,-23.46493 23.99896,-34.70419 5.78476,-6.03022 24.903988,-22.84966 31.905678,-28.06784 1.16013,-0.86461 5.11493,-4.10461 8.78845,-7.2 3.67353,-3.09538 7.99353,-6.70152 9.6,-8.01363 5.93497,-4.84747 21.51342,-18.59508 27.72087,-24.463 14.92986,-14.11325 23.54682,-21.21497 34.4,-28.35097 14.66476,-9.64213 30.04052,-16.71679 42,-19.32494 7.29399,-1.59069 23.94882,-1.75753 30.8,-0.30853 5.64018,1.19286 13.62677,4.6568 17.43623,7.56241 3.56346,2.71799 6.94139,3.34084 9.85297,1.81678 1.27094,-0.66528 6.32569,-5.29031 11.23278,-10.27784 10.12788,-10.29394 10.22802,-10.53259 10.18377,-24.26826 -0.0229,-7.10187 -0.0799,-7.30889 -4.18531,-15.18941 -2.28916,-4.39417 -4.37874,-9.34417 -4.64352,-11 -0.60161,-3.76225 -1.63673,-3.83098 -9.20336,-0.61109 -6.2961,2.6792 -13.81506,4.80048 -17.01563,4.80048 -5.1303,0 -13.90131,-6.37936 -20.08964,-14.61167 -8.99846,-11.97058 -12.70876,-23.44604 -12.73526,-39.38834 -0.0163,-9.82897 0.11238,-10.68551 2.34431,-15.59999 3.24428,-7.14356 8.35811,-12.91705 13.80243,-15.58288 3.83273,-1.8767 5.43573,-2.17549 11.72982,-2.18639 8.20527,-0.0142 13.72501,1.53872 21.18409,5.95994 5.92714,3.51317 15.78043,13.53645 19.70632,20.04627 1.76,2.91839 3.7499,5.31897 4.42199,5.33461 0.6721,0.0157 3.7321,-1.79682 6.8,-4.02769 6.33763,-4.6085 11.62367,-7.44587 21.44864,-11.51294 5.81661,-2.40779 7.77228,-2.83279 13.08408,-2.84342 3.43491,-0.007 8.40529,-0.53405 11.04529,-1.17151 6.16766,-1.48924 11.9169,-1.48442 20.4,0.017 7.56227,1.33852 7.71358,1.3206 21.17473,-2.50908 17.20169,-4.89384 24.47437,-3.6738 28.65687,4.80738 1.23338,2.50101 2.69186,4.71971 3.24106,4.93047 0.54922,0.21076 2.5578,-0.16695 4.46354,-0.83932 7.72607,-2.72593 13.82129,-0.76919 17.44754,5.60114 5.09611,8.95245 9.05382,23.51643 10.21124,37.57634 0.65699,7.98073 1.72515,11.6 3.42352,11.6 0.71194,0 4.92339,-2.29159 9.35879,-5.09243 21.91456,-13.83846 35.10913,-15.154 44.76742,-4.46342 4.95811,5.48802 6.34767,9.53977 6.29526,18.35585 -0.0869,14.61392 -7.18876,29.82948 -18.93267,40.56274 l -4.50245,4.11499 0.8696,8.26114 c 1.91168,18.16079 -0.85412,30.82075 -10.33163,47.29115 -5.50696,9.57025 -10.15218,15.35239 -22.73356,28.29764 -8.21916,8.45691 -11.00926,11.83713 -11.00926,13.33781 0,3.76079 6.52827,14.75814 15.8266,26.66109 5.10142,6.53042 11.24787,14.75348 13.65877,18.27348 7.22677,10.55136 16.97831,32.1356 20.60163,45.6 1.21431,4.51244 1.50573,8.3966 1.50053,20.00001 -0.007,16.60653 -0.76387,20.40594 -6.38127,32.052 -2.83184,5.87103 -4.55428,8.2485 -9.04506,12.48488 -10.08478,9.51346 -22.81563,15.0453 -38.18473,16.59211 -10.86169,1.09316 -14.67077,1.02706 -21.09278,-0.36607 z M 291.18636,439.60677 c 6.23296,-1.80092 11.12412,-3.91317 19.89629,-8.59222 4.04843,-2.15943 10.42011,-11.44817 12.93586,-18.85812 1.74529,-5.14064 1.08031,-22.62059 -1.10185,-28.96381 -5.68692,-16.53098 -26.29752,-35.24981 -46.2408,-41.99652 -6.57339,-2.22374 -20.23905,-4.2655 -28.87203,-4.31371 -11.72105,-0.0654 -30.50068,7.82331 -45.35399,19.05184 -4.74432,3.58653 -8.99858,6.52095 -9.45392,6.52095 -1.18333,0 -0.0609,-3.21585 1.95456,-5.6 3.65103,-4.31888 10.78238,-10.64728 15.92538,-14.13226 2.97,-2.01251 5.4,-3.77618 5.4,-3.91925 0,-0.89657 -22.89615,-7.54849 -25.98217,-7.54849 -4.79376,0 -11.97316,3.77252 -23.21783,12.20012 -11.91046,8.9266 -16.99908,13.32975 -27.7282,23.99305 -17.51439,17.40696 -19.44615,18.70521 -22.81693,15.33444 l -2.05627,-2.05628 0.41803,-15.73566 c 0.34319,-12.91802 0.72948,-16.80902 2.15735,-21.72997 3.35341,-11.55703 9.24287,-20.08506 18.57672,-26.89935 2.94288,-2.14849 5.37288,-4.22804 5.4,-4.62123 0.0633,-0.91773 -8.43934,-0.12491 -20.50632,1.91208 -11.21487,1.89315 -14.64438,2.01795 -14.64438,0.53294 0,-0.65954 3.60518,-2.2387 9.4,-4.11743 14.50774,-4.70353 16.85149,-5.19303 24.91375,-5.20321 9.11311,-0.0115 13.77247,1.26619 31.165,8.54618 44.43687,18.59994 47.5212,19.55515 49.74235,15.40489 1.40896,-2.63266 0.82841,-4.43913 -3.32919,-10.35934 -5.22668,-7.44252 -8.69191,-14.02154 -8.69191,-16.50227 0,-1.37508 0.6346,-2.17984 2.18324,-2.76863 4.67746,-1.77837 18.79294,1.94374 27.66573,7.29518 l 5.43443,3.27765 3.3583,-1.94946 c 4.26563,-2.47615 6.9583,-3.32892 6.9583,-2.20369 0,0.4718 -5.40568,6.16606 -12.01262,12.6539 -6.60694,6.48785 -12.00694,12.29624 -12,12.90753 0.0136,1.19865 0.23291,1.18387 15.30982,-1.03251 8.85253,-1.30136 10.60034,-2.08147 18.9736,-8.46859 3.37106,-2.57145 9.54383,-6.82059 13.71728,-9.44252 4.17344,-2.62194 8.18986,-5.62231 8.92538,-6.66749 0.91957,-1.30673 1.47615,-4.2743 1.7818,-9.50033 0.41348,-7.06978 1.95176,-17.49128 3.71238,-25.15051 1.32852,-5.7795 4.57995,-14.96734 9.92277,-28.03962 4.64205,-11.35767 5.07137,-12.84788 3.83343,-13.30582 -0.76674,-0.28364 -3.32723,-4.34812 -5.68998,-9.03218 -3.6987,-7.33255 -8.30545,-13.30694 -9.40947,-12.20293 -0.18409,0.18409 0.42076,4.04181 1.3441,8.57273 2.15655,10.58235 2.34507,22.54407 0.4649,29.49814 -2.53878,9.39003 -8.935,20.6901 -14.45428,25.5361 -3.33655,2.92953 -8.01974,3.53354 -8.71563,1.12409 -0.22239,-0.77 -1.70721,-6.26 -3.29961,-12.2 -4.35965,-16.26254 -5.83466,-20.46304 -10.25356,-29.2 -3.58749,-7.0931 -5.095,-9.05111 -13.29824,-17.27221 -10.96204,-10.98589 -14.48445,-12.90075 -20.23258,-10.9989 -4.62083,1.52888 -22.44153,12.23347 -26.08243,15.66728 l -2.93166,2.76491 1.9973,1.55414 c 1.09852,0.85479 5.9573,4.10977 10.7973,7.23331 9.46939,6.11115 17.32224,13.44495 20.8594,19.48066 3.24197,5.53199 5.12701,14.48151 5.13436,24.37609 0.007,9.42434 -0.74396,12.98703 -3.3141,15.72283 -3.09578,3.29529 -4.66976,2.51952 -15.68969,-7.73304 -17.74365,-16.5081 -26.9223,-22.54141 -41.93567,-27.5652 -12.12392,-4.05692 -12.09,-4.06324 -20.32143,3.78853 l -6.93842,6.6184 5.29204,3.9816 c 14.65446,11.02567 22.99413,22.1057 21.99075,29.21676 -0.4252,3.01343 -4.37564,2.89299 -18.41792,-0.56157 -11.0627,-2.72156 -13.3135,-3.01812 -23.05932,-3.03827 -10.39438,-0.0215 -11.11903,0.0881 -19.29473,2.91759 -4.67209,1.61696 -10.1624,3.72383 -12.200658,4.68192 -4.46924,2.1008 -11.51815,8.8187 -16.96729,16.17056 -4.47035,6.03127 -10.3447,16.4539 -9.65973,17.13887 0.24434,0.24434 3.97185,-1.36689 8.28334,-3.58053 11.37686,-5.84119 19.832238,-9.00963 24.549438,-9.19929 3.89005,-0.15641 4.10173,-0.0597 4.33765,1.98244 0.29966,2.59405 -1.34045,5.99027 -5.72416,11.85312 -9.848768,13.17192 -13.681578,22.42412 -18.173198,43.86912 -1.41465,6.75421 -1.67503,10.21692 -1.42125,18.90121 0.2079,7.11463 0.65322,11.0448 1.34604,11.8796 2.28915,2.75825 23.269138,8.41175 36.230858,9.76316 l 5.30632,0.55324 3.41141,-7.08316 c 7.85218,-16.3036 20.39233,-31.25862 31.34907,-37.38598 9.77661,-5.46739 11.34571,-3.6433 8.64039,10.04461 -1.05275,5.32649 -1.96072,13.58409 -2.204,20.04413 -0.36677,9.73974 -0.26289,11.0438 0.9158,11.49611 1.2054,0.46256 17.9965,-1.73717 18.71052,-2.45119 0.16567,-0.16566 -0.44962,-0.70304 -1.3673,-1.19417 -5.96375,-3.19171 5.20915,-3.01174 14.76127,0.23777 3.06362,1.0422 7.55021,2.79244 9.97021,3.8894 2.42,1.09697 10.16,4.41888 17.2,7.38203 7.04,2.96314 14.85572,6.2713 17.36827,7.35145 17.49302,7.52033 31.94734,9.26675 45.14223,5.45426 z m 140.2895,-9.15158 c -0.47096,-0.88 -1.19756,-1.6 -1.61467,-1.6 -1.6065,0 -4.87735,-8.03998 -4.62847,-11.37706 0.4378,-5.86994 0.59234,-5.86984 21.04314,0.0144 6.53647,1.88071 8.52706,2.07337 21.6,2.09056 13.63454,0.0179 14.73062,-0.0967 20.61959,-2.1554 9.06105,-3.1677 18.33896,-8.04767 26.98041,-14.1911 9.84747,-7.00084 10.76444,-8.56374 10.78449,-18.3814 0.0167,-8.1843 -0.79106,-13.60001 -2.02847,-13.60001 -0.42432,0 -3.52872,2.03908 -6.89868,4.53129 -12.51608,9.25607 -21.0315,11.88796 -38.25734,11.82434 -13.47196,-0.0498 -20.56308,-1.68386 -32.82446,-7.56418 -13.63366,-6.53843 -20.26578,-12.47394 -20.97572,-18.77253 -0.48453,-4.29876 0.32442,-4.82485 8.60018,-5.59289 32.85222,-3.04891 53.54601,-11.87128 65.35728,-27.86374 l 2.83436,-3.83771 -4.64078,-6.76229 c -2.55243,-3.71926 -5.12988,-6.76229 -5.72769,-6.76229 -0.5978,0 -2.52597,0.73415 -4.28482,1.63146 -9.04681,4.61533 -21.99639,6.79965 -36.33835,6.12949 -11.69612,-0.54652 -18.2389,-2.53025 -22.86747,-6.93331 -2.36611,-2.25082 -3.13253,-3.60436 -3.13253,-5.5322 0,-2.26246 0.40823,-2.72729 3.5949,-4.09325 1.9772,-0.84753 7.19007,-2.68064 11.58416,-4.0736 8.25252,-2.61608 9.55716,-3.86054 3.96636,-3.78338 -8.43492,0.11641 -3.30625,-3.32599 13.21058,-8.86703 4.8642,-1.63183 9.564,-3.42052 10.444,-3.97486 1.42521,-0.89778 1.29411,-0.96323 -1.2,-0.5991 -1.54,0.22483 -6.76,1.33629 -11.6,2.46989 -20.07965,4.703 -25.87406,3.07983 -7.63806,-2.13961 10.40599,-2.97836 22.73678,-7.91288 27.07399,-10.83443 1.19024,-0.80175 3.22687,-1.98476 4.52585,-2.6289 1.29897,-0.64415 6.16424,-4.95117 10.81168,-9.57117 12.7842,-12.70869 21.93501,-27.34866 26.94697,-43.11124 1.50923,-4.74651 1.8777,-7.66267 1.87007,-14.8 -0.015,-13.99255 -2.74681,-21.72924 -10.01985,-28.37639 -6.60945,-6.04066 -10.33529,-7.54288 -17.79585,-7.1751 -4.53966,0.22379 -7.39292,0.86974 -10.7748,2.4393 -5.23776,2.4309 -5.61923,3.55208 -2.68018,7.87728 3.15556,4.64382 3.89043,8.47932 3.53008,18.42456 -0.32649,9.01088 -0.37596,9.21084 -4.07504,16.4754 -10.0842,19.80419 -20.00377,29.31714 -38.57486,36.99363 -12.66461,5.235 -14.23522,6.50192 -15.66303,12.6345 -0.38647,1.65993 -2.16448,10.75806 -3.95111,20.21806 -3.98252,21.08679 -6.37343,30.14031 -10.56348,40 -3.11015,7.31854 -3.2128,7.83702 -2.77172,14 0.53792,7.51635 4.11718,32.61687 5.80976,40.74251 1.63676,7.85763 3.86555,14.09121 7.93364,22.18912 3.63103,7.22788 4.56016,10.34834 3.20594,10.76693 -1.20126,0.37131 -3.00908,-1.29468 -5.74965,-5.29855 -1.35526,-1.98 -3.22602,-4.2858 -4.15723,-5.124 -1.67733,-1.50977 -1.69304,-1.50604 -1.68446,0.4 0.005,1.0582 0.54014,3.67585 1.18972,5.81701 1.74844,5.76315 0.0566,7.38718 -2.81994,2.70699 -2.47885,-4.03308 -3.07162,-7.22844 -3.87345,-20.87988 -0.40961,-6.97394 -1.08909,-13.02422 -1.50993,-13.44507 -0.84859,-0.84858 -2.13574,0.12283 -13.67124,10.31766 -4.1119,3.63401 -7.86355,6.60729 -8.337,6.60729 -0.47346,0 -1.51918,-0.5958 -2.32383,-1.324 -2.40713,-2.17841 -1.97862,-10.49783 1.00799,-19.57007 4.607,-13.99435 7.53932,-19.32074 15.80346,-28.70594 2.77253,-3.14863 1.88156,-4.27495 -1.35734,-1.71588 -1.1644,0.92 -5.57095,4.19612 -9.79232,7.28028 -4.86864,3.55704 -11.36103,9.54066 -17.75489,16.36352 -5.54383,5.9158 -11.73124,12.27833 -13.7498,14.13898 -5.94258,5.47767 -4.31579,6.03504 9.07905,3.11067 4.6804,-1.02184 7.29155,-1.23734 8.66503,-0.71515 2.61477,0.99414 1.97082,2.50719 -1.41859,3.33315 -4.59566,1.11992 -7.14558,2.34544 -7.14558,3.43427 0,0.56965 1.53,2.22667 3.4,3.68227 1.87,1.45561 3.58,2.84145 3.8,3.07966 1.41734,1.53462 16.51981,14.00977 20.90385,17.26728 13.14397,9.76646 21.37498,15.01442 32.6891,20.84207 7.68507,3.9584 9.31631,4.34525 8.00705,1.89889 z m -86.8,-57.10019 c 9.46114,-6.80158 20.10853,-16.25796 19.26047,-17.10601 -0.16313,-0.16313 -3.66347,0.62627 -7.77853,1.75423 -12.71344,3.4848 -22.2522,2.70801 -35.75044,-2.91132 -5.00509,-2.08362 -7.34348,-3.73713 -13.00973,-9.19942 -8.19175,-7.89687 -11.4851,-13.00106 -15.50939,-24.0373 -1.64456,-4.51 -3.40332,-8.2 -3.90836,-8.2 -1.93273,0 -21.7525,14.07564 -23.09492,16.4016 -0.4356,0.75474 1.28738,1.48796 6.55534,2.78962 9.17157,2.26621 20.52401,7.39157 28.34035,12.79501 11.37788,7.86552 23.86429,21.69453 30.28185,33.53789 l 1.38664,2.55899 3.81336,-2.17874 c 2.09734,-1.1983 6.33336,-3.99035 9.41336,-6.20455 z m 15.2,-23.76917 c 12.76618,-3.08476 28.14498,-12.51268 35.86531,-21.98712 7.89175,-9.68478 10.64181,-17.29513 15.30119,-42.34353 1.55508,-8.36 3.73079,-18.92115 4.83489,-23.46923 1.1041,-4.54808 1.80422,-8.59808 1.55582,-9 -0.6913,-1.11855 -6.47759,-0.86907 -9.54219,0.4114 -3.7153,1.55235 -6.28999,6.86643 -12.04712,24.86494 -6.14563,19.21301 -8.08526,22.87773 -14.36356,27.1383 -2.62071,1.77846 -3.87943,2.05459 -9.36552,2.05459 -8.36397,0 -13.5695,-2.37561 -20.41216,-9.31534 -8.50195,-8.62256 -11.42666,-16.19225 -11.42666,-29.57429 0,-7.54274 0.45466,-10.93228 2.74636,-20.47476 4.82548,-20.09286 5.25379,-22.25534 5.24582,-26.48525 -0.006,-2.79355 -0.68729,-5.58879 -2.08629,-8.55036 -8.89599,-18.8322 -10.21763,-24.35883 -9.71579,-40.62791 0.44385,-14.38897 1.8409,-19.32036 7.72011,-27.25097 5.13683,-6.92921 5.18941,-7.68932 0.48723,-7.04482 -6.66029,0.9129 -12.5205,4.99546 -15.16252,10.5631 -1.32624,2.79484 -1.96117,8.86138 -3.6381,34.7606 -1.38988,21.46597 -4.44581,33.04254 -14.9938,56.8 -11.62874,26.19166 -15.40635,40.82291 -15.38798,59.6 0.0153,15.60068 3.5563,25.14889 13.13284,35.41188 13.86109,14.85466 30.43346,19.54931 51.25212,14.51877 z m 20.0446,-49.8877 c 3.16286,-2.0697 10.36748,-19.84658 16.61368,-40.99307 1.47667,-4.99926 1.38301,-5.11348 -6.35559,-7.75033 -12.06172,-4.10989 -27.2079,-12.90141 -31.84179,-18.48238 -1.28649,-1.54944 -2.77282,-2.81717 -3.30294,-2.81717 -1.56941,0 -3.87933,7.03099 -7.62201,23.2 -3.34052,14.43164 -3.06987,21.41959 1.15716,29.87672 2.78076,5.56355 7.29128,11.05326 12.09712,14.72328 1.29639,0.99 2.54893,1.81589 2.78343,1.83531 0.23448,0.0194 2.22634,0.55091 4.42634,1.18108 4.35868,1.24853 9.45476,0.92128 12.0446,-0.77344 z m 46.3554,-55.97492 c 3.96,-1.14964 10.62,-3.75548 14.8,-5.79077 6.6852,-3.25508 8.61827,-4.72224 16.05965,-12.18888 7.32265,-7.34753 8.96637,-9.50983 12.22991,-16.08838 7.77022,-15.66299 8.0847,-25.31416 1.08401,-33.26737 -2.93902,-3.3389 -9.14599,-8.02688 -9.78356,-7.3893 -0.14236,0.14235 0.25165,2.22679 0.87558,4.63208 3.19529,12.31819 -0.73281,22.39071 -13.12898,33.66554 -8.10863,7.37513 -23.75367,14.08112 -36.39044,15.59816 l -4.65383,0.5587 -1.93675,4.37933 c -1.06521,2.40864 -3.56099,6.82255 -5.54617,9.80869 -1.98518,2.98614 -3.60942,5.80093 -3.60942,6.25509 0,3.24524 18.59515,3.13807 30,-0.17289 z m -32.95135,-4.13924 c 1.46531,-2.01916 3.35305,-4.98916 4.195,-6.6 0.84193,-1.61083 2.50978,-4.62621 3.70633,-6.70083 l 2.17554,-3.77205 -2.56276,-1.78931 c -13.3002,-9.28619 -21.99034,-21.13536 -27.47786,-37.4666 -1.96343,-5.84328 -2.28463,-8.03811 -2.28296,-15.6 0.002,-8.7333 0.0242,-8.83639 2.94416,-13.6 1.6182,-2.64 4.39712,-6.42 6.17534,-8.4 4.9155,-5.47325 4.40396,-5.98513 -2.79818,-2.8 -2.48729,1.1 -4.87841,2 -5.3136,2 -0.81629,0 -0.49307,-3.33114 0.56279,-5.8 0.80567,-1.88388 -0.66018,-1.82143 -8.11947,0.34596 -4.82953,1.40328 -6.46144,1.57515 -8.31452,0.87568 -2.11308,-0.7976 -2.50754,-0.6403 -4.72353,1.88358 -6.57275,7.48594 -9.58505,18.24483 -9.60265,34.29732 -0.0149,13.56368 1.153,18.40395 7.52736,31.19746 7.23045,14.51169 17.64059,25.16127 31.10386,31.81926 9.57615,4.73568 9.44874,4.7346 12.80515,0.10953 z M 311.853,221.57151 c 1.83448,-4.67581 2.15319,-6.48454 1.79728,-10.2 -0.48585,-5.07183 -3.31605,-12.11633 -4.86786,-12.11633 -1.43833,0 -7.70656,5.50902 -7.70656,6.77314 0,0.57665 1.61412,4.7786 3.58693,9.33766 1.97281,4.55906 3.59281,9.0992 3.6,10.0892 0.0238,3.28508 1.33343,1.86846 3.59021,-3.88367 z m 108.82286,-5.90999 c 3.10982,-0.64744 9.17621,-2.93277 13.64227,-5.13932 9.65813,-4.77179 17.25551,-11.63712 20.72459,-18.72766 2.04144,-4.17256 2.19896,-5.14008 1.87976,-11.54676 -0.30134,-6.04855 -0.71952,-7.69463 -3.0975,-12.1926 -4.28183,-8.09916 -13.32951,-16.55837 -22.5163,-21.05185 -10.19447,-4.98637 -16.88536,-6.45657 -27.22135,-5.9814 -7.14793,0.3286 -8.83484,0.69417 -13.02447,2.82249 -2.64715,1.34475 -6.51715,4.26687 -8.6,6.4936 -3.41937,3.65558 -3.94507,4.536 -3.71867,6.22772 0.0376,0.2808 -0.41242,0.80767 -1,1.17081 -1.63228,1.00881 -1.39192,15.804 0.36258,22.31863 0.77025,2.86 3.25818,8.95829 5.52872,13.55177 3.19127,6.45616 5.33828,9.58359 9.45939,13.77893 8.89375,9.05394 15.0173,10.8913 27.58098,8.27564 z m 105.72261,-46.1448 c 7.17589,-7.47595 12.494,-18.29918 13.60633,-27.69113 0.45433,-3.83609 0.36717,-4.11086 -1.42248,-4.48424 -5.1423,-1.07285 -15.44896,-1.30437 -20.05462,-0.45049 -6.84694,1.26942 -18.64595,7.03571 -23.70654,11.5856 -7.09052,6.375 -5.00476,6.90145 6.2547,1.57872 7.91035,-3.7395 10.4,-4.34372 10.4,-2.524 0,1.44081 -1.94917,3.0366 -7.01379,5.74221 -6.66978,3.56312 -6.65133,3.70287 1.06041,8.03108 4.48428,2.5168 8.30923,5.43221 11.01208,8.39352 4.67699,5.1242 4.77308,5.12244 9.86391,-0.18127 z m -58.26563,-10.26154 c 5.92001,-7.36015 8.22243,-9.70687 9.20296,-9.38003 0.51539,0.1718 1.21639,2.25323 1.55777,4.6254 0.76662,5.32688 1.61651,6.31463 3.7624,4.37263 1.4849,-1.34382 1.57639,-2.09539 1.11281,-9.14111 -0.27781,-4.22229 -0.59274,-7.78226 -0.69984,-7.91105 -0.1071,-0.12879 -0.9729,1.08475 -1.92401,2.69675 -1.61904,2.74406 -1.82062,2.84824 -3.16217,1.63415 -0.78808,-0.71321 -1.73432,-1.29674 -2.10275,-1.29674 -0.36842,0 -3.26465,1.61726 -6.43608,3.59392 -6.50855,4.0566 -12.12658,6.76244 -14.09474,6.78851 -0.72967,0.01 -4.32967,-2.37993 -8,-5.31021 -12.13936,-9.69169 -26.87656,-15.29639 -46.85061,-17.81776 -13.45368,-1.69829 -15.87482,-2.64115 -19.03173,-7.41158 -2.29733,-3.4715 -4.79681,-12.06312 -5.99541,-20.6084 -0.86413,-6.16073 -1.52629,-7.20135 -4.59558,-7.22224 -1.19584,-0.008 -1.8,-0.49585 -1.8,-1.45305 0,-1.91967 9.85001,-11.64454 15.67184,-15.47274 2.55614,-1.68081 4.93844,-3.57586 5.29402,-4.21123 0.35556,-0.63537 1.9574,-1.58786 3.55964,-2.11664 4.59281,-1.51577 1.50992,-2.41943 -5.55215,-1.62746 -7.3851,0.82821 -7.67334,1.01975 -23.31537,15.49312 -8.49977,7.86473 -12.41416,10.98149 -13.57998,10.81279 -3.26705,-0.47278 -4.46351,-6.21202 -2.93925,-14.09901 0.51608,-2.67032 0.41713,-3.55867 -0.43269,-3.88478 -1.38264,-0.53056 -6.98566,2.98182 -18.46903,11.57771 -4.92963,3.69008 -9.29183,6.506 -9.69377,6.25758 -0.43504,-0.26886 -0.39102,-1.72469 0.10874,-3.59706 0.76024,-2.84824 0.58617,-3.66011 -1.8425,-8.59342 -3.41432,-6.93547 -12.30464,-16.02135 -18.90808,-19.324 -8.11708,-4.05968 -12.56704,-5.16774 -19.49084,-4.85331 -5.44508,0.24727 -6.73924,0.60712 -9.72144,2.70308 -4.126,2.89986 -7.33959,7.37948 -9.09564,12.67894 -1.5837,4.77936 -2.47374,11.69724 -1.50493,11.69721 0.39129,-2e-5 1.72531,-1.27071 2.9645,-2.82377 1.23919,-1.55306 3.67412,-3.76416 5.41096,-4.91354 2.9313,-1.93984 3.61697,-2.05833 9.55578,-1.65127 5.46201,0.37437 7.48716,0.96842 13.84447,4.06107 6.07541,2.95551 9.09033,5.14212 16.3735,11.87504 l 8.92691,8.25249 -0.58235,4.4 c -0.32028,2.42 -0.57463,9.26001 -0.5652,15.20001 0.0134,8.39979 0.34877,11.77786 1.50935,15.2 1.69329,4.99294 5.08269,11.2 6.11581,11.2 0.96966,0 4.7577,-6.64564 4.7577,-8.3468 0,-0.77341 -0.65262,-2.36179 -1.45026,-3.52971 -2.50628,-3.66973 -5.96601,-12.29857 -6.37071,-15.88902 -0.81785,-7.2559 8.66062,-26.06149 11.63596,-23.08615 0.26288,0.26287 0.76752,5.24204 1.12144,11.06482 0.72216,11.88151 3.00447,20.87078 5.6597,22.29182 2.49913,1.33749 3.39223,-0.37655 3.51424,-6.7445 0.12919,-6.7425 2.3514,-13.34053 6.1925,-18.38631 2.658,-3.49163 5.76264,-4.77668 6.55455,-2.713 0.24764,0.64536 -0.29396,5.24784 -1.20358,10.22776 -0.90961,4.9799 -1.65384,11.30447 -1.65384,14.05458 0,5.55598 0.91716,6.65651 5.54741,6.65651 h 2.45259 v -6.00872 c 0,-7.02353 1.70353,-11.42698 6.05069,-15.64041 2.28979,-2.21935 3.0479,-2.55085 4.17367,-1.82497 1.1639,0.75046 1.32067,1.85568 1.0185,7.18054 -0.19643,3.46145 -0.37643,7.91356 -0.4,9.89356 l -0.0429,3.6 h 8 c 9.03083,0 11.6,0.90409 11.6,4.08205 0,1.54931 0.32928,1.9311 1.4,1.62327 4.60804,-1.32483 14.74535,-2.26971 20.41344,-1.90271 14.21956,0.9207 29.97174,9.02251 40.18656,20.66914 7.44714,8.49102 10.90207,8.98581 16.25697,2.32825 z M 466.8198,144.7643 c 8.14517,-4.74666 8.92381,-6.07118 8.41179,-14.30912 -0.53974,-8.68367 -2.96676,-17.98447 -6.68027,-25.60001 -6.08293,-12.4747 -20.44578,-23.62592 -33.07546,-25.67959 -11.1095,-1.80647 -31.21014,2.52924 -45.2,9.74963 -10.41918,5.37752 -10.8,5.74082 -10.8,10.30328 0,6.64293 4.93779,22.61725 7.69971,24.90944 0.61839,0.51322 6.48201,1.39626 13.03025,1.96232 10.13266,0.8759 13.25855,1.49386 20.98797,4.14913 4.99513,1.71597 9.64284,3.37622 10.32822,3.68943 1.03527,0.4731 1.24615,-0.0877 1.24615,-3.31397 0,-2.50822 0.69192,-5.27981 1.95385,-7.82656 1.62923,-3.28798 2.35939,-3.98278 4.39473,-4.18192 7.18336,-0.70283 7.41336,12.59093 0.28166,16.27887 l -2.45039,1.26715 4.64424,2.79661 c 2.55434,1.53815 6.69112,4.74901 9.19287,7.13527 l 4.54862,4.33865 3.07106,-1.2772 c 1.68908,-0.70246 5.47584,-2.6786 8.415,-4.39141 z m -48.41995,-17.37212 c -1.64476,-1.81743 -1.71461,-6.66109 -0.13997,-9.70609 2.41447,-4.66908 8.14564,-7.18126 10.65598,-4.67091 1.35834,1.35834 1.19026,5.86291 -0.33133,8.87972 -3.13499,6.21564 -7.43441,8.53629 -10.18468,5.49728 z m 37.51724,-4.337 c -0.16971,-0.55 -0.48821,-3.0295 -0.7078,-5.50999 -0.46738,-5.27968 -1.82794,-8.21934 -5.43745,-11.74831 -2.44398,-2.38944 -2.53024,-2.65031 -1.28729,-3.89325 1.76809,-1.7681 4.45111,-0.57437 7.40065,3.29268 2.37186,3.10967 3.49842,10.43536 2.4578,15.98235 -0.53149,2.83308 -1.8226,3.83179 -2.42591,1.87652 z m -45.24123,-19.33553 c 0,-1.55392 7.71117,-9.87403 10.47688,-11.30424 3.18391,-1.64646 8.17466,-1.49227 9.79913,0.30276 2.38374,2.634 1.68803,3.60438 -2.2019,3.0712 -3.81524,-0.52293 -6.05721,0.59229 -12.81811,6.37616 -3.33568,2.85362 -5.256,3.42144 -5.256,1.55412 z m 86.81352,36.7495 c 11.38388,-7.65307 16.62898,-9.19126 31.38648,-9.20448 12.20226,-0.011 12.35322,-0.13171 8.25016,-6.60157 -3.64382,-5.7457 -5.23806,-6.46159 -13.50893,-6.06615 -6.15464,0.29426 -7.64069,0.67271 -11.79168,3.00296 -7.50614,4.21376 -13.18209,8.05799 -18.14955,12.2924 -4.07879,3.47688 -4.6,4.25968 -4.6,6.90869 0,2.76981 0.46823,4.05418 1.47801,4.05418 0.22623,0 3.34721,-1.97372 6.93551,-4.38603 z M 301.07586,131.8568 c 7.18084,-3.58776 8.36758,-4.79932 8.1317,-8.30177 -0.11258,-1.67173 -0.29987,-3.13469 -0.4162,-3.25102 -0.11632,-0.11632 -3.40889,0.15181 -7.31681,0.59586 -7.90662,0.89841 -13.99869,0.34622 -13.99869,-1.26886 0,-1.55767 1.44674,-1.82559 7.37336,-1.36543 5.03826,0.39117 5.64941,0.24988 9.8,-2.26564 2.43465,-1.47555 4.42664,-3.09387 4.42664,-3.59625 0,-0.58696 -2.64639,-1.07132 -7.40435,-1.35519 -7.36598,-0.43945 -14.80703,-2.43737 -18.78474,-5.04365 -3.23816,-2.12173 -1.06111,-2.61868 6.58909,-1.50409 8.04731,1.17245 20.4,1.49161 20.4,0.52709 0,-0.34504 -1.89,-2.46324 -4.2,-4.70713 -11.88104,-11.54102 -24.63562,-17.61013 -32.53721,-15.48246 -7.48481,2.01546 -11.64125,9.03536 -11.61502,19.61691 0.0113,4.55254 0.46994,6.57265 2.45213,10.80001 2.77758,5.9237 8.99071,13.10901 14.52892,16.80229 3.63406,2.42347 4.03296,2.5055 10.97118,2.25631 5.92558,-0.21283 7.97881,-0.64772 11.6,-2.45698 z"
       id="path624" />
  </g>
</svg>
